<?xml version="1.0" encoding="UTF-8" standalone="no"?>
<!DOCTYPE svg PUBLIC "-//W3C//DTD SVG 1.1//EN"
 "http://www.w3.org/Graphics/SVG/1.1/DTD/svg11.dtd">
<!-- Generated by graphviz version 2.40.1 (20161225.0304)
 -->
<!-- Title: G Pages: 1 -->
<svg width="503pt" height="1078pt"
 viewBox="0.00 0.00 502.50 1078.00" xmlns="http://www.w3.org/2000/svg" xmlns:xlink="http://www.w3.org/1999/xlink">
<g id="graph0" class="graph" transform="scale(1 1) rotate(0) translate(4 1074)">
<title>G</title>
<polygon fill="#ffffff" stroke="transparent" points="-4,4 -4,-1074 498.5,-1074 498.5,4 -4,4"/>
<!-- A0 -->
<g id="node1" class="node">
<title>A0</title>
<polygon fill="none" stroke="#000000" points="135,-1056 81,-1056 81,-1020 135,-1020 135,-1056"/>
<text text-anchor="middle" x="108" y="-1035" font-family="Helvetica,sans-Serif" font-size="10.00" fill="#000000">Start</text>
</g>
<!-- A1 -->
<g id="node2" class="node">
<title>A1</title>
<polygon fill="none" stroke="#000000" points="164.505,-900 51.495,-900 51.495,-864 164.505,-864 164.505,-900"/>
<text text-anchor="middle" x="108" y="-885" font-family="Helvetica,sans-Serif" font-size="10.00" fill="#000000">main (calling out</text>
<text text-anchor="middle" x="108" y="-873" font-family="Helvetica,sans-Serif" font-size="10.00" fill="#000000">the OPCUAServer)</text>
</g>
<!-- A0&#45;&gt;A1 -->
<g id="edge1" class="edge">
<title>A0&#45;&gt;A1</title>
<path fill="none" stroke="#000000" d="M108,-1019.7995C108,-992.9103 108,-942.3255 108,-910.4926"/>
<polygon fill="#000000" stroke="#000000" points="108,-900.0846 112.5001,-910.0845 108,-905.0846 108.0001,-910.0846 108.0001,-910.0846 108.0001,-910.0846 108,-905.0846 103.5001,-910.0846 108,-900.0846 108,-900.0846"/>
</g>
<!-- A2 -->
<g id="node3" class="node">
<title>A2</title>
<polygon fill="none" stroke="#000000" points="44,-726 44,-758 173,-758 173,-726 44,-726"/>
<text text-anchor="start" x="76" y="-739" font-family="Helvetica,sans-Serif" font-size="10.00" fill="#000000">OPCUAServer</text>
<polygon fill="none" stroke="#000000" points="44,-694 44,-726 173,-726 173,-694 44,-694"/>
<text text-anchor="start" x="101.2765" y="-707" font-family="Helvetica,sans-Serif" font-size="10.00" fill="#000000">run</text>
<polygon fill="none" stroke="#000000" points="44,-638 44,-694 173,-694 173,-638 44,-638"/>
<text text-anchor="start" x="81.55" y="-675" font-family="Helvetica,sans-Serif" font-size="10.00" fill="#000000">stopHandler</text>
<text text-anchor="start" x="53.7655" y="-663" font-family="Helvetica,sans-Serif" font-size="10.00" fill="#000000">beforeReadTemperature</text>
<text text-anchor="start" x="72.3775" y="-651" font-family="Helvetica,sans-Serif" font-size="10.00" fill="#000000">addingAttributes</text>
</g>
<!-- A1&#45;&gt;A2 -->
<g id="edge2" class="edge">
<title>A1&#45;&gt;A2</title>
<path fill="none" stroke="#000000" d="M108,-863.6847C108,-841.4295 108,-802.5726 108,-768.0804"/>
<polygon fill="#000000" stroke="#000000" points="108,-758.0138 112.5001,-768.0137 108,-763.0138 108.0001,-768.0138 108.0001,-768.0138 108.0001,-768.0138 108,-763.0138 103.5001,-768.0138 108,-758.0138 108,-758.0138"/>
</g>
<!-- A3 -->
<g id="node4" class="node">
<title>A3</title>
<polygon fill="none" stroke="#000000" points="0,-556 0,-588 216,-588 216,-556 0,-556"/>
<text text-anchor="start" x="100.7765" y="-569" font-family="Helvetica,sans-Serif" font-size="10.00" fill="#000000">run</text>
<polygon fill="none" stroke="#000000" points="0,-452 0,-556 216,-556 216,-452 0,-452"/>
<text text-anchor="start" x="94.9425" y="-537" font-family="Helvetica,sans-Serif" font-size="10.00" fill="#000000">signal</text>
<text text-anchor="start" x="71.606" y="-525" font-family="Helvetica,sans-Serif" font-size="10.00" fill="#000000">UA_Server_new</text>
<text text-anchor="start" x="59.379" y="-513" font-family="Helvetica,sans-Serif" font-size="10.00" fill="#000000">UA_Server_getConfig</text>
<text text-anchor="start" x="45.7645" y="-501" font-family="Helvetica,sans-Serif" font-size="10.00" fill="#000000">UA_Server_addNamespace</text>
<text text-anchor="start" x="46.0405" y="-489" font-family="Helvetica,sans-Serif" font-size="10.00" fill="#000000">UA_Server_addObjectNode</text>
<text text-anchor="start" x="9.927" y="-477" font-family="Helvetica,sans-Serif" font-size="10.00" fill="#000000">UA_Server_setVariableNode_valueCallback</text>
<text text-anchor="start" x="73.551" y="-465" font-family="Helvetica,sans-Serif" font-size="10.00" fill="#000000">UA_Server_run</text>
</g>
<!-- A2&#45;&gt;A3 -->
<g id="edge3" class="edge">
<title>A2&#45;&gt;A3</title>
<path fill="none" stroke="#000000" d="M108,-637.7373C108,-625.0387 108,-611.4657 108,-598.2163"/>
<polygon fill="#000000" stroke="#000000" points="108,-588.1673 112.5001,-598.1673 108,-593.1673 108.0001,-598.1673 108.0001,-598.1673 108.0001,-598.1673 108,-593.1673 103.5001,-598.1674 108,-588.1673 108,-588.1673"/>
</g>
<!-- A4 -->
<g id="node5" class="node">
<title>A4</title>
<polygon fill="none" stroke="#000000" points="68,-370 68,-402 148,-402 148,-370 68,-370"/>
<text text-anchor="start" x="81.05" y="-383" font-family="Helvetica,sans-Serif" font-size="10.00" fill="#000000">stopHandler</text>
<polygon fill="none" stroke="#000000" points="68,-338 68,-370 148,-370 148,-338 68,-338"/>
<text text-anchor="start" x="77.851" y="-351" font-family="Helvetica,sans-Serif" font-size="10.00" fill="#000000">running=false</text>
</g>
<!-- A3&#45;&gt;A4 -->
<g id="edge4" class="edge">
<title>A3&#45;&gt;A4</title>
<path fill="none" stroke="#000000" d="M108,-451.5843C108,-438.3172 108,-424.7732 108,-412.6301"/>
<polygon fill="#000000" stroke="#000000" points="108,-402.3617 112.5001,-412.3616 108,-407.3617 108.0001,-412.3617 108.0001,-412.3617 108.0001,-412.3617 108,-407.3617 103.5001,-412.3617 108,-402.3617 108,-402.3617"/>
</g>
<!-- A5 -->
<g id="node6" class="node">
<title>A5</title>
<polygon fill="none" stroke="#000000" points="44,-256 44,-288 173,-288 173,-256 44,-256"/>
<text text-anchor="start" x="53.7655" y="-269" font-family="Helvetica,sans-Serif" font-size="10.00" fill="#000000">beforeReadTemperature</text>
<polygon fill="none" stroke="#000000" points="44,-212 44,-256 173,-256 173,-212 44,-212"/>
<text text-anchor="start" x="59.324" y="-237" font-family="Helvetica,sans-Serif" font-size="10.00" fill="#000000">UA_Variant_setScalar</text>
<text text-anchor="start" x="57.9395" y="-225" font-family="Helvetica,sans-Serif" font-size="10.00" fill="#000000">UA_Server_writeValue</text>
</g>
<!-- A4&#45;&gt;A5 -->
<g id="edge5" class="edge">
<title>A4&#45;&gt;A5</title>
<path fill="none" stroke="#000000" d="M108,-337.8422C108,-325.7905 108,-311.8132 108,-298.6014"/>
<polygon fill="#000000" stroke="#000000" points="108,-288.2213 112.5001,-298.2212 108,-293.2213 108.0001,-298.2213 108.0001,-298.2213 108.0001,-298.2213 108,-293.2213 103.5001,-298.2213 108,-288.2213 108,-288.2213"/>
</g>
<!-- A6 -->
<g id="node7" class="node">
<title>A6</title>
<polygon fill="none" stroke="#000000" points="33,-130 33,-162 184,-162 184,-130 33,-130"/>
<text text-anchor="start" x="72.3775" y="-143" font-family="Helvetica,sans-Serif" font-size="10.00" fill="#000000">addingAttributes</text>
<polygon fill="none" stroke="#000000" points="33,-86 33,-130 184,-130 184,-86 33,-86"/>
<text text-anchor="start" x="59.324" y="-111" font-family="Helvetica,sans-Serif" font-size="10.00" fill="#000000">UA_Variant_setScalar</text>
<text text-anchor="start" x="42.652" y="-99" font-family="Helvetica,sans-Serif" font-size="10.00" fill="#000000">UA_Server_addVariableNode</text>
</g>
<!-- A5&#45;&gt;A6 -->
<g id="edge6" class="edge">
<title>A5&#45;&gt;A6</title>
<path fill="none" stroke="#000000" d="M108,-211.8539C108,-199.3945 108,-185.3906 108,-172.2863"/>
<polygon fill="#000000" stroke="#000000" points="108,-162.0164 112.5001,-172.0164 108,-167.0164 108.0001,-172.0164 108.0001,-172.0164 108.0001,-172.0164 108,-167.0164 103.5001,-172.0165 108,-162.0164 108,-162.0164"/>
</g>
<!-- A7 -->
<g id="node8" class="node">
<title>A7</title>
<polygon fill="none" stroke="#000000" points="135,-36 81,-36 81,0 135,0 135,-36"/>
<text text-anchor="middle" x="108" y="-15" font-family="Helvetica,sans-Serif" font-size="10.00" fill="#000000">End</text>
</g>
<!-- A6&#45;&gt;A7 -->
<g id="edge7" class="edge">
<title>A6&#45;&gt;A7</title>
<path fill="none" stroke="#000000" d="M108,-85.7316C108,-72.6139 108,-58.1883 108,-46.0335"/>
<polygon fill="#000000" stroke="#000000" points="108,-36.0265 112.5001,-46.0264 108,-41.0265 108.0001,-46.0265 108.0001,-46.0265 108.0001,-46.0265 108,-41.0265 103.5001,-46.0265 108,-36.0265 108,-36.0265"/>
</g>
<!-- A8 -->
<g id="node9" class="node">
<title>A8</title>
<polygon fill="#fff8dc" stroke="#000000" points="278.5,-1056 191.5,-1056 191.5,-1020 284.5,-1020 284.5,-1050 278.5,-1056"/>
<polyline fill="none" stroke="#000000" points="278.5,-1056 278.5,-1050 "/>
<polyline fill="none" stroke="#000000" points="284.5,-1050 278.5,-1050 "/>
<text text-anchor="middle" x="238" y="-1041" font-family="Helvetica,sans-Serif" font-size="10.00" fill="#000000">OPCUAServer</text>
<text text-anchor="middle" x="238" y="-1029" font-family="Helvetica,sans-Serif" font-size="10.00" fill="#000000">Architecture</text>
</g>
<!-- A9 -->
<g id="node10" class="node">
<title>A9</title>
<polygon fill="none" stroke="#000000" points="322,-1038 322,-1070 407,-1070 407,-1038 322,-1038"/>
<text text-anchor="start" x="352.0015" y="-1051" font-family="Helvetica,sans-Serif" font-size="10.00" fill="#000000">Class</text>
<polygon fill="none" stroke="#000000" points="322,-1006 322,-1038 407,-1038 407,-1006 322,-1006"/>
<text text-anchor="start" x="332" y="-1019" font-family="Helvetica,sans-Serif" font-size="10.00" fill="#000000">OPCUAServer</text>
</g>
<!-- A10 -->
<g id="node11" class="node">
<title>A10</title>
<polygon fill="none" stroke="#000000" points="241,-900 241,-932 370,-932 370,-900 241,-900"/>
<text text-anchor="start" x="291.8875" y="-913" font-family="Helvetica,sans-Serif" font-size="10.00" fill="#000000">Public</text>
<polygon fill="none" stroke="#000000" points="241,-832 241,-900 370,-900 370,-832 241,-832"/>
<text text-anchor="start" x="273" y="-881" font-family="Helvetica,sans-Serif" font-size="10.00" fill="#000000">OPCUAServer</text>
<text text-anchor="start" x="278.55" y="-869" font-family="Helvetica,sans-Serif" font-size="10.00" fill="#000000">stopHandler</text>
<text text-anchor="start" x="250.7655" y="-857" font-family="Helvetica,sans-Serif" font-size="10.00" fill="#000000">beforeReadTemperature</text>
<text text-anchor="start" x="269.3775" y="-845" font-family="Helvetica,sans-Serif" font-size="10.00" fill="#000000">addingAttributes</text>
</g>
<!-- A9&#45;&gt;A10 -->
<g id="edge8" class="edge">
<title>A9&#45;&gt;A10</title>
<path fill="none" stroke="#000000" d="M351.7752,-1005.6767C344.7775,-987.1744 335.7775,-963.3778 327.5441,-941.6081"/>
<polygon fill="#000000" stroke="#000000" points="323.9483,-932.1005 331.6949,-939.862 325.717,-936.7772 327.4858,-941.4539 327.4858,-941.4539 327.4858,-941.4539 325.717,-936.7772 323.2768,-943.0458 323.9483,-932.1005 323.9483,-932.1005"/>
</g>
<!-- A11 -->
<g id="node12" class="node">
<title>A11</title>
<polygon fill="none" stroke="#000000" points="388,-924 388,-956 495,-956 495,-924 388,-924"/>
<text text-anchor="start" x="425.943" y="-937" font-family="Helvetica,sans-Serif" font-size="10.00" fill="#000000">Private</text>
<polygon fill="none" stroke="#000000" points="388,-808 388,-924 495,-924 495,-808 388,-808"/>
<text text-anchor="start" x="400.103" y="-905" font-family="Helvetica,sans-Serif" font-size="10.00" fill="#000000">TemperatureValue</text>
<text text-anchor="start" x="399.8285" y="-893" font-family="Helvetica,sans-Serif" font-size="10.00" fill="#000000">TemperatureString</text>
<text text-anchor="start" x="411.7805" y="-881" font-family="Helvetica,sans-Serif" font-size="10.00" fill="#000000">serialNumber</text>
<text text-anchor="start" x="397.889" y="-869" font-family="Helvetica,sans-Serif" font-size="10.00" fill="#000000">SerialNumberString</text>
<text text-anchor="start" x="418.1695" y="-857" font-family="Helvetica,sans-Serif" font-size="10.00" fill="#000000">SerialNum</text>
<text text-anchor="start" x="428.4425" y="-845" font-family="Helvetica,sans-Serif" font-size="10.00" fill="#000000">snAttr</text>
<text text-anchor="start" x="425.6675" y="-833" font-family="Helvetica,sans-Serif" font-size="10.00" fill="#000000">*server</text>
<text text-anchor="start" x="424.8285" y="-821" font-family="Helvetica,sans-Serif" font-size="10.00" fill="#000000">running</text>
</g>
<!-- A9&#45;&gt;A11 -->
<g id="edge9" class="edge">
<title>A9&#45;&gt;A11</title>
<path fill="none" stroke="#000000" d="M379.9544,-1005.6767C385.8641,-993.7039 392.868,-979.5143 399.9869,-965.0915"/>
<polygon fill="#000000" stroke="#000000" points="404.4256,-956.0988 404.0347,-967.0578 402.2125,-960.5824 399.9994,-965.066 399.9994,-965.066 399.9994,-965.066 402.2125,-960.5824 395.9642,-963.0742 404.4256,-956.0988 404.4256,-956.0988"/>
</g>
</g>
</svg>
