<?xml version="1.0" encoding="UTF-8" standalone="no"?>
<!DOCTYPE svg PUBLIC "-//W3C//DTD SVG 1.1//EN"
 "http://www.w3.org/Graphics/SVG/1.1/DTD/svg11.dtd">
<!-- Generated by graphviz version 2.40.1 (20161225.0304)
 -->
<!-- Title: G Pages: 1 -->
<svg width="642pt" height="932pt"
 viewBox="0.00 0.00 642.00 932.00" xmlns="http://www.w3.org/2000/svg" xmlns:xlink="http://www.w3.org/1999/xlink">
<g id="graph0" class="graph" transform="scale(1 1) rotate(0) translate(4 928)">
<title>G</title>
<polygon fill="#ffffff" stroke="transparent" points="-4,4 -4,-928 638,-928 638,4 -4,4"/>
<!-- A0 -->
<g id="node1" class="node">
<title>A0</title>
<polygon fill="none" stroke="#000000" points="185.5,-846 131.5,-846 131.5,-810 185.5,-810 185.5,-846"/>
<text text-anchor="middle" x="158.5" y="-825" font-family="Helvetica,sans-Serif" font-size="10.00" fill="#000000">Start</text>
</g>
<!-- A1 -->
<g id="node2" class="node">
<title>A1</title>
<polygon fill="none" stroke="#000000" points="185.5,-682 131.5,-682 131.5,-646 185.5,-646 185.5,-682"/>
<text text-anchor="middle" x="158.5" y="-661" font-family="Helvetica,sans-Serif" font-size="10.00" fill="#000000">main</text>
</g>
<!-- A0&#45;&gt;A1 -->
<g id="edge1" class="edge">
<title>A0&#45;&gt;A1</title>
<path fill="none" stroke="#000000" d="M158.5,-809.8225C158.5,-781.3769 158.5,-726.1152 158.5,-692.3904"/>
<polygon fill="#000000" stroke="#000000" points="158.5,-682.2589 163.0001,-692.2589 158.5,-687.2589 158.5001,-692.2589 158.5001,-692.2589 158.5001,-692.2589 158.5,-687.2589 154.0001,-692.2589 158.5,-682.2589 158.5,-682.2589"/>
</g>
<!-- A2 -->
<g id="node3" class="node">
<title>A2</title>
<polygon fill="none" stroke="#000000" points="105.5,-564 105.5,-596 211.5,-596 211.5,-564 105.5,-564"/>
<text text-anchor="start" x="146.8325" y="-577" font-family="Helvetica,sans-Serif" font-size="10.00" fill="#000000">client</text>
<polygon fill="none" stroke="#000000" points="105.5,-532 105.5,-564 211.5,-564 211.5,-532 105.5,-532"/>
<text text-anchor="start" x="115.437" y="-545" font-family="Helvetica,sans-Serif" font-size="10.00" fill="#000000">connect(ipAddress)</text>
</g>
<!-- A1&#45;&gt;A2 -->
<g id="edge2" class="edge">
<title>A1&#45;&gt;A2</title>
<path fill="none" stroke="#000000" d="M158.5,-645.6585C158.5,-634.6951 158.5,-620.282 158.5,-606.6204"/>
<polygon fill="#000000" stroke="#000000" points="158.5,-596.3894 163.0001,-606.3894 158.5,-601.3894 158.5001,-606.3894 158.5001,-606.3894 158.5001,-606.3894 158.5,-601.3894 154.0001,-606.3895 158.5,-596.3894 158.5,-596.3894"/>
</g>
<!-- A3 -->
<g id="node4" class="node">
<title>A3</title>
<polygon fill="none" stroke="#000000" points="85.5,-450 85.5,-482 232.5,-482 232.5,-450 85.5,-450"/>
<text text-anchor="start" x="105.107" y="-463" font-family="Helvetica,sans-Serif" font-size="10.00" fill="#000000">findFolder(parentFolder)</text>
<polygon fill="none" stroke="#000000" points="85.5,-418 85.5,-450 232.5,-450 232.5,-418 85.5,-418"/>
<text text-anchor="start" x="95.1025" y="-431" font-family="Helvetica,sans-Serif" font-size="10.00" fill="#000000">browseNode(parentFolderId)</text>
<polygon fill="none" stroke="#000000" points="85.5,-386 85.5,-418 232.5,-418 232.5,-386 85.5,-386"/>
<text text-anchor="start" x="109.001" y="-399" font-family="Helvetica,sans-Serif" font-size="10.00" fill="#000000">findFolder(childFolder)</text>
<polygon fill="none" stroke="#000000" points="85.5,-354 85.5,-386 232.5,-386 232.5,-354 85.5,-354"/>
<text text-anchor="start" x="98.9965" y="-367" font-family="Helvetica,sans-Serif" font-size="10.00" fill="#000000">browseNode(childFolderId)</text>
<polygon fill="none" stroke="#000000" points="85.5,-322 85.5,-354 232.5,-354 232.5,-322 85.5,-322"/>
<text text-anchor="start" x="102.3265" y="-335" font-family="Helvetica,sans-Serif" font-size="10.00" fill="#000000">findFolder(tempSensorId)</text>
<polygon fill="none" stroke="#000000" points="85.5,-290 85.5,-322 232.5,-322 232.5,-290 85.5,-290"/>
<text text-anchor="start" x="96.491" y="-303" font-family="Helvetica,sans-Serif" font-size="10.00" fill="#000000">browseNode(tempSensorId)</text>
<polygon fill="none" stroke="#000000" points="85.5,-258 85.5,-290 232.5,-290 232.5,-258 85.5,-258"/>
<text text-anchor="start" x="107.051" y="-271" font-family="Helvetica,sans-Serif" font-size="10.00" fill="#000000">findFolder(childNodeId)</text>
<polygon fill="none" stroke="#000000" points="85.5,-226 85.5,-258 232.5,-258 232.5,-226 85.5,-226"/>
<text text-anchor="start" x="101.2155" y="-239" font-family="Helvetica,sans-Serif" font-size="10.00" fill="#000000">browseNode(childNodeId)</text>
</g>
<!-- A2&#45;&gt;A3 -->
<g id="edge3" class="edge">
<title>A2&#45;&gt;A3</title>
<path fill="none" stroke="#000000" d="M158.5,-531.6477C158.5,-520.3367 158.5,-506.8195 158.5,-492.3605"/>
<polygon fill="#000000" stroke="#000000" points="158.5,-482.2154 163.0001,-492.2154 158.5,-487.2154 158.5001,-492.2154 158.5001,-492.2154 158.5001,-492.2154 158.5,-487.2154 154.0001,-492.2155 158.5,-482.2154 158.5,-482.2154"/>
</g>
<!-- A4 -->
<g id="node5" class="node">
<title>A4</title>
<polygon fill="none" stroke="#000000" points=".5,-144 .5,-176 153.5,-176 153.5,-144 .5,-144"/>
<text text-anchor="start" x="52.275" y="-157" font-family="Helvetica,sans-Serif" font-size="10.00" fill="#000000">findFolders</text>
<polygon fill="none" stroke="#000000" points=".5,-88 .5,-144 153.5,-144 153.5,-88 .5,-88"/>
<text text-anchor="start" x="28.109" y="-125" font-family="Helvetica,sans-Serif" font-size="10.00" fill="#000000">UA_String_fromChars</text>
<text text-anchor="start" x="48.3855" y="-113" font-family="Helvetica,sans-Serif" font-size="10.00" fill="#000000">ObjectFinder</text>
<text text-anchor="start" x="28.109" y="-101" font-family="Helvetica,sans-Serif" font-size="10.00" fill="#000000">UA_String_fromChars</text>
<polygon fill="none" stroke="#000000" points=".5,-44 .5,-88 153.5,-88 153.5,-44 .5,-44"/>
<text text-anchor="start" x="48.3855" y="-69" font-family="Helvetica,sans-Serif" font-size="10.00" fill="#000000">ObjectFinder</text>
<text text-anchor="start" x="39.218" y="-57" font-family="Helvetica,sans-Serif" font-size="10.00" fill="#000000">(Private function)</text>
<polygon fill="none" stroke="#000000" points=".5,0 .5,-44 153.5,-44 153.5,0 .5,0"/>
<text text-anchor="start" x="10.0475" y="-25" font-family="Helvetica,sans-Serif" font-size="10.00" fill="#000000">UA_ReferenceDescription *ref</text>
<text text-anchor="start" x="13.0865" y="-13" font-family="Helvetica,sans-Serif" font-size="10.00" fill="#000000">outputFolderPath.push_back</text>
</g>
<!-- A3&#45;&gt;A4 -->
<g id="edge4" class="edge">
<title>A3&#45;&gt;A4</title>
<path fill="none" stroke="#000000" d="M118.9411,-225.6749C114.829,-212.3356 110.6975,-198.9334 106.7124,-186.0061"/>
<polygon fill="#000000" stroke="#000000" points="103.6963,-176.222 110.9425,-184.4525 105.1692,-181.0001 106.6422,-185.7782 106.6422,-185.7782 106.6422,-185.7782 105.1692,-181.0001 102.3419,-187.1039 103.6963,-176.222 103.6963,-176.222"/>
</g>
<!-- A5 -->
<g id="node6" class="node">
<title>A5</title>
<polygon fill="none" stroke="#000000" points="171.5,-122 171.5,-154 312.5,-154 312.5,-122 171.5,-122"/>
<text text-anchor="start" x="213.9395" y="-135" font-family="Helvetica,sans-Serif" font-size="10.00" fill="#000000">browseNode</text>
<polygon fill="none" stroke="#000000" points="171.5,-78 171.5,-122 312.5,-122 312.5,-78 171.5,-78"/>
<text text-anchor="start" x="191.714" y="-103" font-family="Helvetica,sans-Serif" font-size="10.00" fill="#000000">browseRequestBuilder</text>
<text text-anchor="start" x="204.218" y="-91" font-family="Helvetica,sans-Serif" font-size="10.00" fill="#000000">(Private function)</text>
<polygon fill="none" stroke="#000000" points="171.5,-22 171.5,-78 312.5,-78 312.5,-22 171.5,-22"/>
<text text-anchor="start" x="196.992" y="-59" font-family="Helvetica,sans-Serif" font-size="10.00" fill="#000000">UA_BrowseRequest</text>
<text text-anchor="start" x="181.1605" y="-47" font-family="Helvetica,sans-Serif" font-size="10.00" fill="#000000">UA_Client_Service_browse</text>
<text text-anchor="start" x="183.3795" y="-35" font-family="Helvetica,sans-Serif" font-size="10.00" fill="#000000">UA_BrowseRequest_clear</text>
</g>
<!-- A3&#45;&gt;A5 -->
<g id="edge5" class="edge">
<title>A3&#45;&gt;A5</title>
<path fill="none" stroke="#000000" d="M198.5413,-225.6749C205.1374,-204.5356 211.7827,-183.2386 217.8096,-163.9236"/>
<polygon fill="#000000" stroke="#000000" points="220.8081,-154.3138 222.1251,-165.2003 219.3187,-159.0868 217.8294,-163.8599 217.8294,-163.8599 217.8294,-163.8599 219.3187,-159.0868 213.5336,-162.5194 220.8081,-154.3138 220.8081,-154.3138"/>
</g>
<!-- A6 -->
<g id="node7" class="node">
<title>A6</title>
<polygon fill="#fff8dc" stroke="#000000" points="293.2882,-846 203.7118,-846 203.7118,-810 299.2882,-810 299.2882,-840 293.2882,-846"/>
<polyline fill="none" stroke="#000000" points="293.2882,-846 293.2882,-840 "/>
<polyline fill="none" stroke="#000000" points="299.2882,-840 293.2882,-840 "/>
<text text-anchor="middle" x="251.5" y="-831" font-family="Helvetica,sans-Serif" font-size="10.00" fill="#000000">RetreiveValues</text>
<text text-anchor="middle" x="251.5" y="-819" font-family="Helvetica,sans-Serif" font-size="10.00" fill="#000000">Architecture</text>
</g>
<!-- A7 -->
<g id="node8" class="node">
<title>A7</title>
<polygon fill="none" stroke="#000000" points="317.5,-892 317.5,-924 440.5,-924 440.5,-892 317.5,-892"/>
<text text-anchor="start" x="345.106" y="-905" font-family="Helvetica,sans-Serif" font-size="10.00" fill="#000000">RetreiveValues</text>
<polygon fill="none" stroke="#000000" points="317.5,-836 317.5,-892 440.5,-892 440.5,-836 317.5,-836"/>
<text text-anchor="start" x="363.7235" y="-873" font-family="Helvetica,sans-Serif" font-size="10.00" fill="#000000">&#45;*client</text>
<text text-anchor="start" x="327.0495" y="-861" font-family="Helvetica,sans-Serif" font-size="10.00" fill="#000000">&#45;browseRequestBuilder</text>
<text text-anchor="start" x="347.3315" y="-849" font-family="Helvetica,sans-Serif" font-size="10.00" fill="#000000">&#45; ObjectFinder</text>
<polygon fill="none" stroke="#000000" points="317.5,-732 317.5,-836 440.5,-836 440.5,-732 317.5,-732"/>
<text text-anchor="start" x="332.4585" y="-817" font-family="Helvetica,sans-Serif" font-size="10.00" fill="#000000">+ vector&lt;UA_String&gt;</text>
<text text-anchor="start" x="340.653" y="-805" font-family="Helvetica,sans-Serif" font-size="10.00" fill="#000000">outputFolderPath</text>
<text text-anchor="start" x="349.1305" y="-793" font-family="Helvetica,sans-Serif" font-size="10.00" fill="#000000">+stopHandler</text>
<text text-anchor="start" x="358.573" y="-781" font-family="Helvetica,sans-Serif" font-size="10.00" fill="#000000">+connect</text>
<text text-anchor="start" x="348.02" y="-769" font-family="Helvetica,sans-Serif" font-size="10.00" fill="#000000">+browseNode</text>
<text text-anchor="start" x="353.8555" y="-757" font-family="Helvetica,sans-Serif" font-size="10.00" fill="#000000">+findFolder</text>
<text text-anchor="start" x="337.463" y="-745" font-family="Helvetica,sans-Serif" font-size="10.00" fill="#000000">+readTemperature</text>
</g>
<!-- A8 -->
<g id="node9" class="node">
<title>A8</title>
<polygon fill="#fff8dc" stroke="#000000" points="533.3528,-846 457.6472,-846 457.6472,-810 539.3528,-810 539.3528,-840 533.3528,-846"/>
<polyline fill="none" stroke="#000000" points="533.3528,-846 533.3528,-840 "/>
<polyline fill="none" stroke="#000000" points="539.3528,-840 533.3528,-840 "/>
<text text-anchor="middle" x="498.5" y="-831" font-family="Helvetica,sans-Serif" font-size="10.00" fill="#000000">SaveValues</text>
<text text-anchor="middle" x="498.5" y="-819" font-family="Helvetica,sans-Serif" font-size="10.00" fill="#000000">Architecture</text>
</g>
<!-- A9 -->
<g id="node10" class="node">
<title>A9</title>
<polygon fill="none" stroke="#000000" points="557.5,-850 557.5,-882 634.5,-882 634.5,-850 557.5,-850"/>
<text text-anchor="start" x="569.324" y="-863" font-family="Helvetica,sans-Serif" font-size="10.00" fill="#000000">SaveValues</text>
<polygon fill="none" stroke="#000000" points="557.5,-818 557.5,-850 634.5,-850 634.5,-818 557.5,-818"/>
<text text-anchor="start" x="579.618" y="-831" font-family="Helvetica,sans-Serif" font-size="10.00" fill="#000000">&#45;myFile</text>
<polygon fill="none" stroke="#000000" points="557.5,-774 557.5,-818 634.5,-818 634.5,-774 557.5,-774"/>
<text text-anchor="start" x="571.135" y="-799" font-family="Helvetica,sans-Serif" font-size="10.00" fill="#000000">+createFile</text>
<text text-anchor="start" x="567.2455" y="-787" font-family="Helvetica,sans-Serif" font-size="10.00" fill="#000000">+writeValues</text>
</g>
</g>
</svg>
